<svg width="720" height="1024" viewBox="0 0 720 1024" fill="none" xmlns="http://www.w3.org/2000/svg">
<path fill-rule="evenodd" clip-rule="evenodd" d="M-45.8642 454.595C-96.1098 256.394 -103.8 23.0584 67.6527 -88.5838C239.614 -200.557 451.617 -101.329 612.548 25.8656C781.471 159.376 940.668 343.819 873.61 548.415C797.692 780.045 564.249 938.136 321.659 913.383C106.039 891.382 7.36448 664.564 -45.8642 454.595Z" fill="url(#paint0_linear_60_7189)"/>
<path fill-rule="evenodd" clip-rule="evenodd" d="M-48.6767 733.051C-98.9711 534.667 -106.715 301.128 64.7217 189.43C236.668 77.3992 448.707 176.762 609.678 304.104C778.642 437.768 937.891 622.407 870.876 827.165C795.007 1058.98 561.586 1217.15 318.975 1192.32C103.337 1170.25 4.6039 943.213 -48.6767 733.051Z" fill="url(#paint1_linear_60_7189)"/>
<path fill-rule="evenodd" clip-rule="evenodd" d="M62.5321 471.051C190.3 413.878 346.749 381.249 442.133 483.653C537.801 586.361 495.738 740.895 428.829 864.303C358.597 993.84 252.879 1122.81 107.048 1101.69C-58.0521 1077.78 -192.026 939.065 -203.771 772.68C-214.21 624.792 -72.8215 531.618 62.5321 471.051Z" fill="url(#paint2_linear_60_7189)"/>
<path fill-rule="evenodd" clip-rule="evenodd" d="M62.5321 471.051C190.3 413.878 346.749 381.249 442.133 483.653C537.801 586.361 495.738 740.895 428.829 864.303C358.597 993.84 252.879 1122.81 107.048 1101.69C-58.0521 1077.78 -192.026 939.065 -203.771 772.68C-214.21 624.792 -72.8215 531.618 62.5321 471.051Z" fill="url(#paint3_linear_60_7189)"/>
<defs>
<linearGradient id="paint0_linear_60_7189" x1="543.629" y1="887.576" x2="263.846" y2="-156.59" gradientUnits="userSpaceOnUse">
<stop stop-color="#E9F4FB" stop-opacity="0.4"/>
<stop offset="1" stop-color="#E9F4FB"/>
</linearGradient>
<linearGradient id="paint1_linear_60_7189" x1="540.953" y1="1166.54" x2="260.911" y2="121.41" gradientUnits="userSpaceOnUse">
<stop stop-color="#9BCCED"/>
<stop offset="1" stop-color="#E9F4FB"/>
</linearGradient>
<linearGradient id="paint2_linear_60_7189" x1="-160.348" y1="919.223" x2="510.992" y2="607.861" gradientUnits="userSpaceOnUse">
<stop stop-color="#9BCCED"/>
<stop offset="1" stop-color="#C2E0F4"/>
</linearGradient>
<linearGradient id="paint3_linear_60_7189" x1="-2.08171e-05" y1="1024" x2="643" y2="324" gradientUnits="userSpaceOnUse">
<stop stop-color="white"/>
<stop offset="1" stop-color="white" stop-opacity="0"/>
</linearGradient>
</defs>
</svg>
